<?xml version="1.0" encoding="utf-8"?>
<!-- Generator: Adobe Illustrator 18.1.0, SVG Export Plug-In . SVG Version: 6.00 Build 0)  -->
<svg version="1.1" id="Layer_1" xmlns="http://www.w3.org/2000/svg" xmlns:xlink="http://www.w3.org/1999/xlink" x="0px" y="0px"
	 viewBox="0 0 1500 1500" enable-background="new 0 0 1500 1500" xml:space="preserve">
<g>
	<g>
		<linearGradient id="SVGID_1_" gradientUnits="userSpaceOnUse" x1="68.2781" y1="804.7064" x2="1443.9304" y2="804.7064">
			<stop  offset="0" style="stop-color:#4D76B8"/>
			<stop  offset="0.995" style="stop-color:#173569"/>
		</linearGradient>
		<path fill="url(#SVGID_1_)" d="M1218.8,581c85.2-67.5,90.8-193.1,90.8-193.1c-48.8,163.7-162.8,173.8-224.1,166.1
			c58.9-61.9,63.1-155.6,63.1-155.6c-26.3,88.1-73.8,126.2-119.3,141c-19.9-7.3-39.4-13.9-58.6-19.7
			c38.2-54.9,41.3-122.4,41.3-122.4c-17.5,58.7-45.2,93.1-75.1,112.8C312.5,345.7,68.3,977.6,68.3,977.6
			c177.7-235,331.5-334.6,471.9-366.6c-58.8,48.3-96.3,121.6-96.3,203.6c0,145.5,117.9,263.4,263.4,263.4
			c99.8,0,186.6-55.5,231.3-137.3c-43,110.1-147.9,190-273.5,195.2c-133.7,5.5-250.8-75.2-297.9-192.7
			c29,163.8,175.3,285,346.1,277.9c186.2-7.7,331-164.9,323.3-351.2c-3.4-83.2-36.8-158-89.2-214.7c44.9,13,89.5,25.7,134.2,34.7
			c295.2,59.4,362.4-255.2,362.4-255.2C1395.7,550.4,1302.8,580.8,1218.8,581z"/>
		<linearGradient id="SVGID_2_" gradientUnits="userSpaceOnUse" x1="119.464" y1="520.0675" x2="943.7692" y2="520.0675">
			<stop  offset="0" style="stop-color:#4D76B8"/>
			<stop  offset="0.995" style="stop-color:#173569"/>
		</linearGradient>
		<path fill="url(#SVGID_2_)" d="M943.8,387.9C495,168.4,119.5,705,119.5,705C597.5,227,943.8,387.9,943.8,387.9z"/>
	</g>
	<path fill="#FFFFFF" d="M765.5,664.2h-91.6v85.9H588v91.6h85.9v85.9h91.6v-85.9h85.9v-91.6h-85.9V664.2z M890.4,915.7
		c-5.9-4.3-18.2,2.3-27.4,14.9c-9.2,12.6-11.9,26.2-6,30.6c5.9,4.3,18.2-2.3,27.4-14.9C893.6,933.7,896.3,920.1,890.4,915.7z"/>
</g>
</svg>
